<?xml version="1.0" encoding="UTF-8"?>
<svg width="99px" height="53px" viewBox="0 0 99 53" version="1.1" xmlns="http://www.w3.org/2000/svg" xmlns:xlink="http://www.w3.org/1999/xlink">
    <!-- Generator: Sketch 42 (36781) - http://www.bohemiancoding.com/sketch -->
    <title>Logo 1</title>
    <desc>Created with Sketch.</desc>
    <defs></defs>
    <g id="Page-1" stroke="none" stroke-width="1" fill="none" fill-rule="evenodd">
        <g id="V2---with-nav" transform="translate(-192.000000, -823.000000)">
            <g id="Nav" transform="translate(0.000000, 796.000000)">
                <g id="Logo-1" transform="translate(192.000000, 27.000000)">
                    <path d="M66.5407774,0 C66.8244425,0.447404834 67.077711,1.04732505 67.3005907,1.79977863 C67.5234704,2.55223222 67.6349085,3.33517893 67.6349085,4.14864227 C67.6349085,5.73489577 67.300594,6.86355922 66.631955,7.53466647 C65.963316,8.20577372 65.06168,8.54132231 63.9270198,8.54132231 L51.162157,8.54132231 L51.162157,15.4353896 L64.4740854,15.4353896 C64.798274,15.8827944 65.071804,16.4725465 65.2946837,17.2046635 C65.5175634,17.9367805 65.6290015,18.7095591 65.6290015,19.5230224 C65.6290015,21.0686028 65.294687,22.1769299 64.626048,22.8480372 C63.957409,23.5191444 63.0557729,23.854693 61.9211128,23.854693 L51.2837271,23.854693 L51.2837271,36.727686 C50.8379678,36.8497055 50.1389466,36.9717231 49.1866425,37.0937426 C48.2343385,37.2157621 47.2921795,37.276771 46.3601372,37.276771 C45.4280949,37.276771 44.6075048,37.205594 43.8983422,37.0632379 C43.1891796,36.9208818 42.5914658,36.6666783 42.1051829,36.3006198 C41.6189,35.9345613 41.2541933,35.4261544 41.0110518,34.7753837 C40.7679104,34.124613 40.6463415,33.2704893 40.6463415,32.212987 L40.6463415,5.67387839 C40.6463415,3.92493222 41.1528786,2.5420653 42.165968,1.52523613 C43.1790574,0.508406958 44.5568383,0 46.2993521,0 L66.5407774,0 Z" id="F" fill="#9A9A9A"></path>
                    <path d="M61.6779726,0 C61.9616376,0.447404834 62.2149062,1.04732505 62.4377858,1.79977863 C62.6606655,2.55223222 62.7721037,3.33517893 62.7721037,4.14864227 C62.7721037,5.73489577 62.4377892,6.86355922 61.7691502,7.53466647 C61.1005111,8.20577372 60.1988751,8.54132231 59.0642149,8.54132231 L46.2993521,8.54132231 L46.2993521,15.4353896 L59.6112805,15.4353896 C59.9354691,15.8827944 60.2089991,16.4725465 60.4318788,17.2046635 C60.6547585,17.9367805 60.7661966,18.7095591 60.7661966,19.5230224 C60.7661966,21.0686028 60.4318822,22.1769299 59.7632431,22.8480372 C59.0946041,23.5191444 58.1929681,23.854693 57.0583079,23.854693 L46.4209223,23.854693 L46.4209223,36.727686 C45.9751629,36.8497055 45.2761417,36.9717231 44.3238377,37.0937426 C43.3715336,37.2157621 42.4293746,37.276771 41.4973323,37.276771 C40.5652901,37.276771 39.7446999,37.205594 39.0355373,37.0632379 C38.3263748,36.9208818 37.728661,36.6666783 37.242378,36.3006198 C36.7560951,35.9345613 36.3913884,35.4261544 36.148247,34.7753837 C35.9051055,34.124613 35.7835366,33.2704893 35.7835366,32.212987 L35.7835366,5.67387839 C35.7835366,3.92493222 36.2900737,2.5420653 37.3031631,1.52523613 C38.3162525,0.508406958 39.6940335,0 41.4365473,0 L61.6779726,0 Z" id="F" fill="#CFCFCF"></path>
                    <path d="M56.8151677,0 C57.0988327,0.447404834 57.3521013,1.04732505 57.5749809,1.79977863 C57.7978606,2.55223222 57.9092988,3.33517893 57.9092988,4.14864227 C57.9092988,5.73489577 57.5749843,6.86355922 56.9063453,7.53466647 C56.2377063,8.20577372 55.3360702,8.54132231 54.2014101,8.54132231 L41.4365473,8.54132231 L41.4365473,15.4353896 L54.7484756,15.4353896 C55.0726642,15.8827944 55.3461943,16.4725465 55.5690739,17.2046635 C55.7919536,17.9367805 55.9033918,18.7095591 55.9033918,19.5230224 C55.9033918,21.0686028 55.5690773,22.1769299 54.9004383,22.8480372 C54.2317992,23.5191444 53.3301632,23.854693 52.195503,23.854693 L41.5581174,23.854693 L41.5581174,36.727686 C41.112358,36.8497055 40.4133368,36.9717231 39.4610328,37.0937426 C38.5087287,37.2157621 37.5665697,37.276771 36.6345274,37.276771 C35.7024852,37.276771 34.8818951,37.205594 34.1727325,37.0632379 C33.4635699,36.9208818 32.8658561,36.6666783 32.3795732,36.3006198 C31.8932903,35.9345613 31.5285835,35.4261544 31.2854421,34.7753837 C31.0423006,34.124613 30.9207317,33.2704893 30.9207317,32.212987 L30.9207317,5.67387839 C30.9207317,3.92493222 31.4272688,2.5420653 32.4403582,1.52523613 C33.4534476,0.508406958 34.8312286,0 36.5737424,0 L56.8151677,0 Z" id="F" fill="#FFFFFF"></path>
                    <path d="M2.14235771,46.7104431 C2.26823767,46.7104431 2.36614432,46.6121751 2.36614432,46.4858304 L2.36614432,46.036605 C2.36614432,45.9102604 2.26823767,45.8119923 2.14235771,45.8119923 L0.477944791,45.8119923 C0.226184854,45.8119923 0.0303715701,46.0085284 0.0303715701,46.2612177 L0.0303715701,52.5363352 C0.0303715701,52.6626798 0.128278212,52.7609479 0.25415818,52.7609479 L0.701731401,52.7609479 C0.82761137,52.7609479 0.925518012,52.6626798 0.925518012,52.5363352 L0.925518012,49.7286764 L2.14235771,49.7286764 C2.26823767,49.7286764 2.36614432,49.6304083 2.36614432,49.5040637 L2.36614432,49.0548382 C2.36614432,48.9284936 2.26823767,48.8302255 2.14235771,48.8302255 L0.925518012,48.8302255 L0.925518012,46.7104431 L2.14235771,46.7104431 Z M5.62503683,51.862497 L4.4221838,51.862497 L4.4221838,46.036605 C4.4221838,45.9102604 4.31029049,45.8119923 4.19839719,45.8119923 L3.75082397,45.8119923 C3.624944,45.8119923 3.52703736,45.9102604 3.52703736,46.036605 L3.52703736,52.3117225 C3.52703736,52.5503735 3.72285064,52.7609479 3.97461058,52.7609479 L5.62503683,52.7609479 C5.7509168,52.7609479 5.84882344,52.6486415 5.84882344,52.5363352 L5.84882344,52.0871097 C5.84882344,51.9607651 5.7509168,51.862497 5.62503683,51.862497 Z M8.49230277,45.8260306 C9.37346255,45.8260306 10.100769,46.5560219 10.100769,47.4404344 L10.100769,52.5363352 C10.100769,52.6626798 10.0028624,52.7609479 9.87698243,52.7609479 L9.42940921,52.7609479 C9.30352924,52.7609479 9.20562259,52.6626798 9.20562259,52.5363352 L9.20562259,49.7427146 L7.76499629,49.7427146 L7.76499629,52.5363352 C7.76499629,52.6626798 7.66708965,52.7609479 7.54120968,52.7609479 L7.09363646,52.7609479 C6.96775649,52.7609479 6.86984985,52.6626798 6.86984985,52.5363352 L6.86984985,47.4404344 C6.86984985,46.5560219 7.59715633,45.8260306 8.49230277,45.8260306 Z M9.20562259,48.8442638 L9.20562259,47.4404344 C9.20562259,47.0473622 8.88392934,46.7244814 8.49230277,46.7244814 C8.08668954,46.7244814 7.76499629,47.0473622 7.76499629,47.4404344 L7.76499629,48.8442638 L9.20562259,48.8442638 Z M13.8072348,48.1423491 L14.254808,48.1423491 C14.380688,48.1423491 14.4785946,48.0440811 14.4785946,47.9177364 L14.4785946,47.4404344 C14.4785946,46.5419836 13.7512881,45.8260306 12.8701283,45.8260306 C11.9889686,45.8260306 11.2616621,46.5419836 11.2616621,47.4404344 L11.2616621,51.1605823 C11.2616621,52.0449949 11.9889686,52.7609479 12.8701283,52.7609479 C13.7512881,52.7609479 14.4785946,52.0449949 14.4785946,51.1605823 L14.4785946,49.0548382 C14.4785946,48.9284936 14.380688,48.8302255 14.254808,48.8302255 L13.0939149,48.8302255 C12.968035,48.8302255 12.8701283,48.9284936 12.8701283,49.0548382 L12.8701283,49.5040637 C12.8701283,49.61637 12.968035,49.7146381 13.0939149,49.7146381 L13.5834482,49.7146381 L13.5834482,51.1605823 C13.5834482,51.5536546 13.2617549,51.8765353 12.8701283,51.8765353 C12.4785018,51.8765353 12.1568085,51.5536546 12.1568085,51.1605823 L12.1568085,47.4404344 C12.1568085,47.0333239 12.4785018,46.7244814 12.8701283,46.7244814 C13.2617549,46.7244814 13.5834482,47.0333239 13.5834482,47.4404344 L13.5834482,47.9177364 C13.5834482,48.0440811 13.6813548,48.1423491 13.8072348,48.1423491 Z M18.0451937,48.1283108 L18.4927669,48.1283108 C18.6186469,48.1283108 18.7165535,48.0300428 18.7165535,47.9036981 L18.7165535,47.4263961 C18.7165535,46.5419836 17.9892471,45.8119923 17.1080873,45.8119923 C16.2269275,45.8119923 15.499621,46.5419836 15.499621,47.4263961 C15.499621,47.8756215 15.499621,47.8756215 15.8353009,48.324847 L17.7794471,50.9078931 C17.8214071,50.9640462 17.8214071,50.9640462 17.8214071,51.146544 C17.8214071,51.5396163 17.4997138,51.862497 17.1080873,51.862497 C16.7164607,51.862497 16.3947675,51.5396163 16.3947675,51.146544 L16.3947675,50.6692421 C16.3947675,50.5428974 16.2968608,50.4446293 16.1709808,50.4446293 L15.7234076,50.4446293 C15.5975277,50.4446293 15.499621,50.5428974 15.499621,50.6692421 L15.499621,51.146544 C15.499621,52.0309566 16.2269275,52.7609479 17.1080873,52.7609479 C17.9892471,52.7609479 18.7165535,52.0309566 18.7165535,51.146544 C18.7165535,50.6973186 18.7165535,50.6973186 18.3808736,50.2480932 L16.4367274,47.6650471 C16.3947675,47.608894 16.3947675,47.608894 16.3947675,47.4263961 C16.3947675,47.0333239 16.7164607,46.7104431 17.1080873,46.7104431 C17.4997138,46.7104431 17.8214071,47.0333239 17.8214071,47.4263961 L17.8214071,47.9036981 C17.8214071,48.0300428 17.9193137,48.1283108 18.0451937,48.1283108 Z M21.5558462,45.8119923 L19.4019,45.8119923 C19.2760201,45.8119923 19.1781134,45.9102604 19.1781134,46.036605 L19.1781134,46.4858304 C19.1781134,46.6121751 19.2760201,46.7104431 19.4019,46.7104431 L20.0312999,46.7104431 L20.0312999,52.5363352 C20.0312999,52.6486415 20.1292065,52.7609479 20.2550865,52.7609479 L20.7026597,52.7609479 C20.8285397,52.7609479 20.9264463,52.6486415 20.9264463,52.5363352 L20.9264463,46.7104431 L21.5558462,46.7104431 C21.6817261,46.7104431 21.7796328,46.6121751 21.7796328,46.4858304 L21.7796328,46.036605 C21.7796328,45.9102604 21.6817261,45.8119923 21.5558462,45.8119923 Z M24.0035122,45.8260306 C24.884672,45.8260306 25.6119785,46.5560219 25.6119785,47.4404344 L25.6119785,52.5363352 C25.6119785,52.6626798 25.5140718,52.7609479 25.3881919,52.7609479 L24.9406186,52.7609479 C24.8147387,52.7609479 24.716832,52.6626798 24.716832,52.5363352 L24.716832,49.7427146 L23.2762057,49.7427146 L23.2762057,52.5363352 C23.2762057,52.6626798 23.1782991,52.7609479 23.0524191,52.7609479 L22.6048459,52.7609479 C22.4789659,52.7609479 22.3810593,52.6626798 22.3810593,52.5363352 L22.3810593,47.4404344 C22.3810593,46.5560219 23.1083658,45.8260306 24.0035122,45.8260306 Z M24.716832,48.8442638 L24.716832,47.4404344 C24.716832,47.0473622 24.3951388,46.7244814 24.0035122,46.7244814 C23.597899,46.7244814 23.2762057,47.0473622 23.2762057,47.4404344 L23.2762057,48.8442638 L24.716832,48.8442638 Z M28.8848576,46.7104431 C29.0107376,46.7104431 29.1086443,46.6121751 29.1086443,46.4858304 L29.1086443,46.036605 C29.1086443,45.9102604 29.0107376,45.8119923 28.8848576,45.8119923 L27.2204447,45.8119923 C26.9686848,45.8119923 26.7728715,46.0085284 26.7728715,46.2612177 L26.7728715,52.5363352 C26.7728715,52.6626798 26.8707781,52.7609479 26.9966581,52.7609479 L27.4442313,52.7609479 C27.5701113,52.7609479 27.6680179,52.6626798 27.6680179,52.5363352 L27.6680179,49.7286764 L28.8848576,49.7286764 C29.0107376,49.7286764 29.1086443,49.6304083 29.1086443,49.5040637 L29.1086443,49.0548382 C29.1086443,48.9284936 29.0107376,48.8302255 28.8848576,48.8302255 L27.6680179,48.8302255 L27.6680179,46.7104431 L28.8848576,46.7104431 Z M32.3815234,46.7104431 C32.5074034,46.7104431 32.60531,46.6121751 32.60531,46.4858304 L32.60531,46.036605 C32.60531,45.9102604 32.5074034,45.8119923 32.3815234,45.8119923 L30.7171105,45.8119923 C30.4653506,45.8119923 30.2695373,46.0085284 30.2695373,46.2612177 L30.2695373,52.5363352 C30.2695373,52.6626798 30.3674439,52.7609479 30.4933239,52.7609479 L30.9408971,52.7609479 C31.0667771,52.7609479 31.1646837,52.6626798 31.1646837,52.5363352 L31.1646837,49.7286764 L32.3815234,49.7286764 C32.5074034,49.7286764 32.60531,49.6304083 32.60531,49.5040637 L32.60531,49.0548382 C32.60531,48.9284936 32.5074034,48.8302255 32.3815234,48.8302255 L31.1646837,48.8302255 L31.1646837,46.7104431 L32.3815234,46.7104431 Z M37.8922687,46.7104431 C38.0181487,46.7104431 38.1160553,46.6121751 38.1160553,46.4858304 L38.1160553,46.036605 C38.1160553,45.9102604 38.0181487,45.8119923 37.8922687,45.8119923 L36.2278558,45.8119923 C35.9760959,45.8119923 35.7802826,46.0085284 35.7802826,46.2612177 L35.7802826,52.5363352 C35.7802826,52.6626798 35.8781892,52.7609479 36.0040692,52.7609479 L36.4516424,52.7609479 C36.5775224,52.7609479 36.675429,52.6626798 36.675429,52.5363352 L36.675429,49.7286764 L37.8922687,49.7286764 C38.0181487,49.7286764 38.1160553,49.6304083 38.1160553,49.5040637 L38.1160553,49.0548382 C38.1160553,48.9284936 38.0181487,48.8302255 37.8922687,48.8302255 L36.675429,48.8302255 L36.675429,46.7104431 L37.8922687,46.7104431 Z M42.2840809,45.8119923 L41.8365077,45.8119923 C41.7106277,45.8119923 41.6127211,45.9102604 41.6127211,46.036605 L41.6127211,51.1325058 C41.6127211,51.5396163 41.2910279,51.862497 40.8994013,51.862497 C40.4937881,51.862497 40.1720948,51.5396163 40.1720948,51.1325058 L40.1720948,46.036605 C40.1720948,45.9102604 40.0741882,45.8119923 39.9483082,45.8119923 L39.500735,45.8119923 C39.3888417,45.8119923 39.2769484,45.9102604 39.2769484,46.036605 L39.2769484,51.1325058 C39.2769484,52.0309566 40.0042548,52.7609479 40.8994013,52.7609479 C41.7805611,52.7609479 42.5078675,52.0309566 42.5078675,51.1325058 L42.5078675,46.036605 C42.5078675,45.9102604 42.4099609,45.8119923 42.2840809,45.8119923 Z M45.2912135,45.8119923 C44.3960671,45.8119923 43.6687606,46.5419836 43.6687606,47.4263961 L43.6687606,52.5363352 C43.6687606,52.6486415 43.7666672,52.7609479 43.8925472,52.7609479 L44.3401204,52.7609479 C44.4660004,52.7609479 44.563907,52.6486415 44.563907,52.5363352 L44.563907,47.4263961 C44.563907,47.0333239 44.8856003,46.7104431 45.2912135,46.7104431 C45.6828401,46.7104431 46.0045333,47.0333239 46.0045333,47.4263961 L46.0045333,52.5363352 C46.0045333,52.6486415 46.10244,52.7609479 46.2283199,52.7609479 L46.6758932,52.7609479 C46.8017731,52.7609479 46.8996798,52.6486415 46.8996798,52.5363352 L46.8996798,47.4263961 C46.8996798,46.5419836 46.1723733,45.8119923 45.2912135,45.8119923 Z M50.6061455,48.1283108 L51.0537187,48.1283108 C51.1795987,48.1283108 51.2775053,48.0300428 51.2775053,47.9036981 L51.2775053,47.4263961 C51.2775053,46.5419836 50.5501989,45.8119923 49.6690391,45.8119923 C48.7738926,45.8119923 48.0605728,46.5419836 48.0605728,47.4263961 L48.0605728,51.146544 C48.0605728,52.0309566 48.7738926,52.7609479 49.6690391,52.7609479 C50.5501989,52.7609479 51.2775053,52.0309566 51.2775053,51.146544 L51.2775053,50.6271272 C51.2775053,50.5007825 51.1795987,50.4025145 51.0537187,50.4025145 L50.6061455,50.4025145 C50.4802655,50.4025145 50.3823589,50.5007825 50.3823589,50.6271272 L50.3823589,51.146544 C50.3823589,51.5396163 50.0606656,51.862497 49.6690391,51.862497 C49.2774125,51.862497 48.9557193,51.5396163 48.9557193,51.146544 L48.9557193,47.4263961 C48.9557193,47.0333239 49.2774125,46.7104431 49.6690391,46.7104431 C50.0606656,46.7104431 50.3823589,47.0333239 50.3823589,47.4263961 L50.3823589,47.9036981 C50.3823589,48.0300428 50.4802655,48.1283108 50.6061455,48.1283108 Z M54.116798,45.8119923 L51.9628518,45.8119923 C51.8369719,45.8119923 51.7390652,45.9102604 51.7390652,46.036605 L51.7390652,46.4858304 C51.7390652,46.6121751 51.8369719,46.7104431 51.9628518,46.7104431 L52.5922517,46.7104431 L52.5922517,52.5363352 C52.5922517,52.6486415 52.6901583,52.7609479 52.8160383,52.7609479 L53.2636115,52.7609479 C53.3894915,52.7609479 53.4873981,52.6486415 53.4873981,52.5363352 L53.4873981,46.7104431 L54.116798,46.7104431 C54.2426779,46.7104431 54.3405846,46.6121751 54.3405846,46.4858304 L54.3405846,46.036605 C54.3405846,45.9102604 54.2426779,45.8119923 54.116798,45.8119923 Z M56.0469575,46.036605 C56.0469575,45.9102604 55.9350642,45.8119923 55.8231709,45.8119923 L55.3755976,45.8119923 C55.2497177,45.8119923 55.151811,45.9102604 55.151811,46.036605 L55.151811,52.5363352 C55.151811,52.6626798 55.2497177,52.7609479 55.3755976,52.7609479 L55.8231709,52.7609479 C55.9490508,52.7609479 56.0469575,52.6626798 56.0469575,52.5363352 L56.0469575,46.036605 Z M59.5436233,51.1325058 L59.5436233,47.4263961 C59.5436233,47.0333239 59.22193,46.7104431 58.8303034,46.7104431 C58.4246902,46.7104431 58.102997,47.0333239 58.102997,47.4263961 L58.102997,51.1325058 C58.102997,51.5396163 58.4246902,51.862497 58.8303034,51.862497 C59.22193,51.862497 59.5436233,51.5396163 59.5436233,51.1325058 Z M58.8303034,45.8119923 C59.7114632,45.8119923 60.4387697,46.5419836 60.4387697,47.4263961 L60.4387697,51.1325058 C60.4387697,52.0309566 59.7114632,52.7609479 58.8303034,52.7609479 C57.935157,52.7609479 57.2078505,52.0309566 57.2078505,51.1325058 L57.2078505,47.4263961 C57.2078505,46.5419836 57.935157,45.8119923 58.8303034,45.8119923 Z M63.2221157,45.8119923 C62.3269692,45.8119923 61.5996627,46.5419836 61.5996627,47.4263961 L61.5996627,52.5363352 C61.5996627,52.6486415 61.6975694,52.7609479 61.8234494,52.7609479 L62.2710226,52.7609479 C62.3969025,52.7609479 62.4948092,52.6486415 62.4948092,52.5363352 L62.4948092,47.4263961 C62.4948092,47.0333239 62.8165024,46.7104431 63.2221157,46.7104431 C63.6137422,46.7104431 63.9354355,47.0333239 63.9354355,47.4263961 L63.9354355,52.5363352 C63.9354355,52.6486415 64.0333421,52.7609479 64.1592221,52.7609479 L64.6067953,52.7609479 C64.7326753,52.7609479 64.8305819,52.6486415 64.8305819,52.5363352 L64.8305819,47.4263961 C64.8305819,46.5419836 64.1032754,45.8119923 63.2221157,45.8119923 Z M67.6139279,45.8260306 C68.4950877,45.8260306 69.2223942,46.5560219 69.2223942,47.4404344 L69.2223942,52.5363352 C69.2223942,52.6626798 69.1244875,52.7609479 68.9986075,52.7609479 L68.5510343,52.7609479 C68.4251544,52.7609479 68.3272477,52.6626798 68.3272477,52.5363352 L68.3272477,49.7427146 L66.8866214,49.7427146 L66.8866214,52.5363352 C66.8866214,52.6626798 66.7887148,52.7609479 66.6628348,52.7609479 L66.2152616,52.7609479 C66.0893816,52.7609479 65.991475,52.6626798 65.991475,52.5363352 L65.991475,47.4404344 C65.991475,46.5560219 66.7187815,45.8260306 67.6139279,45.8260306 Z M68.3272477,48.8442638 L68.3272477,47.4404344 C68.3272477,47.0473622 68.0055545,46.7244814 67.6139279,46.7244814 C67.2083147,46.7244814 66.8866214,47.0473622 66.8866214,47.4404344 L66.8866214,48.8442638 L68.3272477,48.8442638 Z M72.4812867,51.862497 L71.2784336,51.862497 L71.2784336,46.036605 C71.2784336,45.9102604 71.1665403,45.8119923 71.054647,45.8119923 L70.6070738,45.8119923 C70.4811938,45.8119923 70.3832872,45.9102604 70.3832872,46.036605 L70.3832872,52.3117225 C70.3832872,52.5503735 70.5791005,52.7609479 70.8308604,52.7609479 L72.4812867,52.7609479 C72.6071666,52.7609479 72.7050733,52.6486415 72.7050733,52.5363352 L72.7050733,52.0871097 C72.7050733,51.9607651 72.6071666,51.862497 72.4812867,51.862497 Z M77.8521653,46.7104431 C77.9780453,46.7104431 78.0759519,46.6121751 78.0759519,46.4858304 L78.0759519,46.036605 C78.0759519,45.9102604 77.9780453,45.8119923 77.8521653,45.8119923 L76.1877524,45.8119923 C75.9359925,45.8119923 75.7401792,46.0085284 75.7401792,46.2612177 L75.7401792,52.5363352 C75.7401792,52.6626798 75.8380858,52.7609479 75.9639658,52.7609479 L76.411539,52.7609479 C76.537419,52.7609479 76.6353256,52.6626798 76.6353256,52.5363352 L76.6353256,49.7286764 L77.8521653,49.7286764 C77.9780453,49.7286764 78.0759519,49.6304083 78.0759519,49.5040637 L78.0759519,49.0548382 C78.0759519,48.9284936 77.9780453,48.8302255 77.8521653,48.8302255 L76.6353256,48.8302255 L76.6353256,46.7104431 L77.8521653,46.7104431 Z M80.1319914,46.036605 C80.1319914,45.9102604 80.0200981,45.8119923 79.9082048,45.8119923 L79.4606316,45.8119923 C79.3347516,45.8119923 79.236845,45.9102604 79.236845,46.036605 L79.236845,52.5363352 C79.236845,52.6626798 79.3347516,52.7609479 79.4606316,52.7609479 L79.9082048,52.7609479 C80.0340848,52.7609479 80.1319914,52.6626798 80.1319914,52.5363352 L80.1319914,46.036605 Z M83.5307506,45.8119923 L81.3768044,45.8119923 C81.2509245,45.8119923 81.1530178,45.9102604 81.1530178,46.036605 L81.1530178,46.4858304 C81.1530178,46.6121751 81.2509245,46.7104431 81.3768044,46.7104431 L82.0062043,46.7104431 L82.0062043,52.5363352 C82.0062043,52.6486415 82.1041109,52.7609479 82.2299909,52.7609479 L82.6775641,52.7609479 C82.8034441,52.7609479 82.9013507,52.6486415 82.9013507,52.5363352 L82.9013507,46.7104431 L83.5307506,46.7104431 C83.6566305,46.7104431 83.7545372,46.6121751 83.7545372,46.4858304 L83.7545372,46.036605 C83.7545372,45.9102604 83.6566305,45.8119923 83.5307506,45.8119923 Z M85.9784166,45.8119923 C85.0832702,45.8119923 84.3559637,46.5419836 84.3559637,47.4263961 L84.3559637,52.5363352 C84.3559637,52.6486415 84.4538703,52.7609479 84.5797503,52.7609479 L85.0273235,52.7609479 C85.1532035,52.7609479 85.2511101,52.6486415 85.2511101,52.5363352 L85.2511101,47.4263961 C85.2511101,47.0333239 85.5728034,46.7104431 85.9784166,46.7104431 C86.3700432,46.7104431 86.6917364,47.0333239 86.6917364,47.4263961 L86.6917364,52.5363352 C86.6917364,52.6486415 86.7896431,52.7609479 86.915523,52.7609479 L87.3630963,52.7609479 C87.4889762,52.7609479 87.5868829,52.6486415 87.5868829,52.5363352 L87.5868829,47.4263961 C87.5868829,46.5419836 86.8595764,45.8119923 85.9784166,45.8119923 Z M90.859762,46.7104431 C90.985642,46.7104431 91.0835487,46.6121751 91.0835487,46.4858304 L91.0835487,46.036605 C91.0835487,45.9102604 90.985642,45.8119923 90.859762,45.8119923 L89.1953491,45.8119923 C88.9435892,45.8119923 88.7477759,46.0085284 88.7477759,46.2612177 L88.7477759,52.3117225 C88.7477759,52.5503735 88.9435892,52.7609479 89.1953491,52.7609479 L90.859762,52.7609479 C90.985642,52.7609479 91.0835487,52.6626798 91.0835487,52.5363352 L91.0835487,52.0871097 C91.0835487,51.9607651 90.985642,51.862497 90.859762,51.862497 L89.6429224,51.862497 L89.6429224,49.7286764 L90.859762,49.7286764 C90.985642,49.7286764 91.0835487,49.6304083 91.0835487,49.5040637 L91.0835487,49.0548382 C91.0835487,48.9284936 90.985642,48.8302255 90.859762,48.8302255 L89.6429224,48.8302255 L89.6429224,46.7104431 L90.859762,46.7104431 Z M94.2305479,48.1283108 L94.6781211,48.1283108 C94.8040011,48.1283108 94.9019077,48.0300428 94.9019077,47.9036981 L94.9019077,47.4263961 C94.9019077,46.5419836 94.1746012,45.8119923 93.2934414,45.8119923 C92.4122817,45.8119923 91.6849752,46.5419836 91.6849752,47.4263961 C91.6849752,47.8756215 91.6849752,47.8756215 92.0206551,48.324847 L93.9648013,50.9078931 C94.0067613,50.9640462 94.0067613,50.9640462 94.0067613,51.146544 C94.0067613,51.5396163 93.685068,51.862497 93.2934414,51.862497 C92.9018149,51.862497 92.5801216,51.5396163 92.5801216,51.146544 L92.5801216,50.6692421 C92.5801216,50.5428974 92.482215,50.4446293 92.356335,50.4446293 L91.9087618,50.4446293 C91.7828818,50.4446293 91.6849752,50.5428974 91.6849752,50.6692421 L91.6849752,51.146544 C91.6849752,52.0309566 92.4122817,52.7609479 93.2934414,52.7609479 C94.1746012,52.7609479 94.9019077,52.0309566 94.9019077,51.146544 C94.9019077,50.6973186 94.9019077,50.6973186 94.5662278,50.2480932 L92.6220816,47.6650471 C92.5801216,47.608894 92.5801216,47.608894 92.5801216,47.4263961 C92.5801216,47.0333239 92.9018149,46.7104431 93.2934414,46.7104431 C93.685068,46.7104431 94.0067613,47.0333239 94.0067613,47.4263961 L94.0067613,47.9036981 C94.0067613,48.0300428 94.1046679,48.1283108 94.2305479,48.1283108 Z M98.3286402,48.1283108 L98.7762134,48.1283108 C98.9020934,48.1283108 99,48.0300428 99,47.9036981 L99,47.4263961 C99,46.5419836 98.2726935,45.8119923 97.3915337,45.8119923 C96.510374,45.8119923 95.7830675,46.5419836 95.7830675,47.4263961 C95.7830675,47.8756215 95.7830675,47.8756215 96.1187474,48.324847 L98.0628936,50.9078931 C98.1048536,50.9640462 98.1048536,50.9640462 98.1048536,51.146544 C98.1048536,51.5396163 97.7831603,51.862497 97.3915337,51.862497 C96.9999072,51.862497 96.6782139,51.5396163 96.6782139,51.146544 L96.6782139,50.6692421 C96.6782139,50.5428974 96.5803073,50.4446293 96.4544273,50.4446293 L96.0068541,50.4446293 C95.8809741,50.4446293 95.7830675,50.5428974 95.7830675,50.6692421 L95.7830675,51.146544 C95.7830675,52.0309566 96.510374,52.7609479 97.3915337,52.7609479 C98.2726935,52.7609479 99,52.0309566 99,51.146544 C99,50.6973186 99,50.6973186 98.6643201,50.2480932 L96.7201739,47.6650471 C96.6782139,47.608894 96.6782139,47.608894 96.6782139,47.4263961 C96.6782139,47.0333239 96.9999072,46.7104431 97.3915337,46.7104431 C97.7831603,46.7104431 98.1048536,47.0333239 98.1048536,47.4263961 L98.1048536,47.9036981 C98.1048536,48.0300428 98.2027602,48.1283108 98.3286402,48.1283108 Z" id="Flagstaff-Functional" fill="#FFFFFF"></path>
                </g>
            </g>
        </g>
    </g>
</svg>