<?xml version="1.0" encoding="UTF-8"?>
<svg width="103px" height="71px" viewBox="0 0 103 71" version="1.1" xmlns="http://www.w3.org/2000/svg" xmlns:xlink="http://www.w3.org/1999/xlink">
    <!-- Generator: Sketch 42 (36781) - http://www.bohemiancoding.com/sketch -->
    <title>Group</title>
    <desc>Created with Sketch.</desc>
    <defs></defs>
    <g id="Page-1" stroke="none" stroke-width="1" fill="none" fill-rule="evenodd">
        <g id="iPhone-7" transform="translate(-60.000000, -2337.000000)" fill="#000000">
            <g id="KB" transform="translate(36.000000, 2337.000000)">
                <g id="Group" transform="translate(24.000000, 0.000000)">
                    <path d="M97.9222003,33.6207414 C99.2916321,30.5620916 100.272406,26.5972236 98.6590851,23.0429653 C96.7770945,18.8976383 91.9514776,16.5856704 84.3178734,16.1750607 L82.6328201,16.1711377 L82.5037023,16.1750607 C81.0442792,16.2535211 79.7204951,16.4235188 78.467139,16.6405927 C78.4058406,18.2751854 78.1515175,19.9647004 77.7106909,21.6999839 C79.3331416,21.2919896 81.0977523,21.0893001 82.6980312,20.9990706 L84.1222403,20.9990706 C88.0257731,21.2174522 92.9296432,22.0949015 94.2716864,25.0371684 C94.9342305,26.491302 94.7072961,28.3233535 94.1230052,30.0834829 C91.0411315,27.9114361 87.2875841,26.6325308 83.2340659,26.6325308 C81.5424916,26.6325308 79.9069987,26.8666045 78.3458464,27.2837525 C80.9908062,31.9822257 82.4267532,37.3227669 82.4267532,42.7666144 C82.4267532,50.3916623 79.7074529,57.391642 75.1922406,62.8446432 C77.6363503,63.9953965 80.3543464,64.6570796 83.2340659,64.6570796 C93.7069588,64.6570796 102.196132,56.1454286 102.196132,45.6448052 C102.197436,41.0823301 100.593244,36.8964652 97.9222003,33.6207414 Z" id="Shape"></path>
                    <path d="M23.8020292,27.1346777 C22.4117299,26.8077591 20.9627406,26.6325308 19.4720162,26.6325308 C15.5450075,26.6325308 11.8971019,27.8290527 8.87130974,29.878178 C8.33788344,28.180817 8.14877143,26.4363797 8.78653539,25.0371684 C10.1272744,22.0949015 15.0311445,21.2161445 18.9359815,20.9990706 L20.3601906,20.9990706 C21.7870081,21.0788387 23.3468562,21.2475287 24.816713,21.5731396 C24.3889286,19.8522404 24.1515604,18.1771098 24.0967831,16.5569015 C22.9829786,16.3842885 21.8222221,16.2430597 20.5532153,16.1750607 L18.868162,16.1711377 L18.7377399,16.1750607 C11.1041357,16.586978 6.27982305,18.8989459 4.39783247,23.0429653 C2.83276753,26.491302 3.71050812,30.3254026 5.01603312,33.3448222 C2.20543734,36.6610838 0.507341883,40.9528704 0.507341883,45.6448052 C0.507341883,56.1454286 8.99651494,64.6570796 19.4694078,64.6570796 C22.1665364,64.6570796 24.728026,64.0843183 27.0508432,63.0669478 C22.4234679,57.5812548 19.6246101,50.4975839 19.6246101,42.7666144 C19.6272185,37.2521525 21.0983795,31.8684581 23.8020292,27.1346777 Z" id="Shape"></path>
                    <path d="M72.7778571,25.2956486 C74.7628812,20.8613256 76.1844818,15.1140978 73.846014,9.9631693 C71.1175841,3.95309894 64.1230481,0.60283778 53.0593432,0.00523069658 L50.6152334,0 L50.4274256,0.00523069658 C39.3624166,0.60283778 32.3691847,3.95309894 29.6407549,9.9631693 C27.3714107,14.9610999 28.6443302,20.5200227 30.5354503,24.896808 C26.4623688,29.7025105 24,35.9257318 24,42.726945 C24,57.948272 36.3066273,70.2874852 51.4877571,70.2874852 C66.668887,70.2874852 78.9755143,57.948272 78.9755143,42.726945 C78.9755143,36.1127292 76.6500886,30.0451211 72.7778571,25.2956486 Z M36.1201237,19.8714163 C35.3467208,17.4116812 35.0728344,14.8826394 35.9975269,12.8544368 C37.9421201,8.58880378 45.0501234,7.31512916 50.7104416,6.99997969 L52.7750231,6.99997969 C58.434037,7.31512916 65.5433445,8.58880378 67.4879377,12.8544368 C68.4491484,14.9637152 68.1204847,17.6169861 67.2727412,20.169566 C62.8057851,17.0206867 57.364576,15.1664047 51.4877571,15.1664047 C45.7948334,15.1664047 40.5075224,16.9003806 36.1201237,19.8714163 Z" id="Shape"></path>
                </g>
            </g>
        </g>
    </g>
</svg>