<?xml version="1.0" encoding="UTF-8"?>
<svg width="72px" height="112px" viewBox="0 0 72 112" version="1.1" xmlns="http://www.w3.org/2000/svg" xmlns:xlink="http://www.w3.org/1999/xlink">
    <!-- Generator: Sketch 42 (36781) - http://www.bohemiancoding.com/sketch -->
    <title>TRX</title>
    <desc>Created with Sketch.</desc>
    <defs></defs>
    <g id="Page-1" stroke="none" stroke-width="1" fill="none" fill-rule="evenodd">
        <g id="V2---with-nav" transform="translate(-580.000000, -2428.000000)" fill="#000000">
            <g id="Equipment" transform="translate(0.000000, 2304.000000)">
                <g id="TRX" transform="translate(499.000000, 80.000000)">
                    <g transform="translate(80.000000, 44.000000)" id="Rectangle-7">
                        <rect x="30.2580494" y="0" width="12" height="40"></rect>
                        <path d="M21.4405232,70.2780547 L21.4405232,62.8175261 C21.4405232,62.8175261 49.7373974,84.2247654 51.980032,98.8626398 C54.2226666,113.500514 22.1054959,129.834191 22.1054959,129.834191 L22.1054959,121.443766 C22.1054959,121.443766 42.6457704,111.553434 42.6457704,96.3258586 C42.6457704,81.0982834 21.4405232,70.2780547 21.4405232,70.2780547 Z" transform="translate(36.766382, 96.325859) rotate(90.000000) translate(-36.766382, -96.325859) "></path>
                        <rect transform="translate(36.758049, 78.000000) rotate(90.000000) translate(-36.758049, -78.000000) " x="30.7580494" y="42.5" width="12" height="71" rx="6"></rect>
                        <path d="M16.7419506,24.8688671 L24.7419506,24.8688671 L24.7419506,84.8688671 L19.4444057,84.3582212 C19.4444057,84.3582212 20.4778558,74.8150427 20.4778558,70.9401064 C20.4778558,67.0651701 16.7419506,24.8688671 16.7419506,24.8688671 Z" transform="translate(20.741951, 54.868867) rotate(35.000000) translate(-20.741951, -54.868867) "></path>
                        <path d="M47.7831996,25.8558613 L55.7831996,25.8558613 C55.7831996,25.8558613 52.5366069,56.9562522 52.5366069,72.6487601 C52.5366069,88.341268 55.7831996,85.8558613 55.7831996,85.8558613 L47.7831996,85.8558613 L47.7831996,25.8558613 Z" transform="translate(51.783200, 55.927777) rotate(-35.000000) translate(-51.783200, -55.927777) "></path>
                    </g>
                </g>
            </g>
        </g>
    </g>
</svg>