<?xml version="1.0" encoding="UTF-8"?>
<svg width="140px" height="108px" viewBox="0 0 140 108" version="1.1" xmlns="http://www.w3.org/2000/svg" xmlns:xlink="http://www.w3.org/1999/xlink">
    <!-- Generator: Sketch 42 (36781) - http://www.bohemiancoding.com/sketch -->
    <title>Rectangle 4</title>
    <desc>Created with Sketch.</desc>
    <defs></defs>
    <g id="Page-1" stroke="none" stroke-width="1" fill="none" fill-rule="evenodd">
        <g id="V2---with-nav" transform="translate(-1026.000000, -2429.000000)" fill="#000000">
            <g id="Equipment" transform="translate(0.000000, 2304.000000)">
                <g id="VIPR" transform="translate(976.000000, 80.000000)">
                    <path d="M42,90.9911452 C42,88.2346118 44.2313647,86 46.9976695,86 L60.9547928,86 C61.5089597,86 61.9608841,86.4558706 61.9640893,87.0003895 L62.0186672,96.2724524 C62.0219194,96.8249522 62.4666857,97.2728419 63.0222251,97.2728419 L68.0948044,97.2728419 C68.645802,97.2728419 69.0924738,96.8169713 69.0924738,96.2724524 L69.0924738,87.0003895 C69.0924738,86.4478896 69.5488244,86 70.0834367,86 L71.5922305,86 C72.1395243,86 72.5856086,86.4558706 72.5884932,87.0003895 L72.6376134,96.2724524 C72.6405403,96.8249522 73.0853838,97.2728419 73.637964,97.2728419 L78.391527,97.2728419 C78.9410784,97.2728419 79.3865779,96.8169713 79.3865779,96.2724524 L79.3865779,87.0003895 C79.3865779,86.4478896 79.8342838,86 80.3931248,86 L157.98863,86 C158.544531,86 158.993674,86.4558706 158.991879,87.0003895 L158.961316,96.2724524 C158.959494,96.8249522 159.397387,97.2889874 159.956109,97.3078461 L166.202931,97.364847 C166.744743,97.314034 167.2383,96.8330335 167.256335,96.2766343 L167.199724,86.9577333 C167.191022,86.4287918 167.621949,86 168.18914,86 L169.529,86 C170.084141,86 170.534172,86.4558706 170.534172,87.0003895 L170.534172,96.2724524 C170.534172,96.8249522 170.973814,97.2728419 171.536857,97.2728419 L177.70869,97.2728419 C178.262458,97.2728419 178.711376,96.8169713 178.711376,96.2724524 L178.711376,87.0003895 C178.711376,86.4478896 179.162344,86 179.706242,86 L192.720697,86 C195.477982,86 197.713203,88.2483583 197.713203,90.9911452 L197.713203,107.379639 C197.713203,110.136173 195.482076,112.370784 192.708706,112.370784 L47.0044973,112.370784 C44.2405898,112.370784 42,110.122426 42,107.379639 L42,90.9911452 Z" id="Rectangle-4" transform="translate(119.856602, 99.185392) rotate(35.000000) translate(-119.856602, -99.185392) "></path>
                </g>
            </g>
        </g>
    </g>
</svg>